/* XPM */
static char *qtlogo_xpm[] = {
/* width height ncolors chars_per_pixel */
"54 34 13 1",
/* colors */
"  c #000000",
". c #999999",
"X c #333366",
"o c #6666CC",
"O c #333333",
"@ c #666699",
"# c #000066",
"$ c #666666",
"% c #3333CC",
"& c #000033",
"* c #9999CC",
"= c #333399",
"+ c None",
/* pixels */
"+++++++++++++++++++.$OOO$.++++++++++++++++++++++++++++",
"+++++++++++++++++$         O.+++++++++++++++++++++++++",
"+++++++++++++++.O            $++++++++++++++++++++++++",
"++++++++++++++.    $.++.$     O+++++++++++++++++++++++",
"+++++++++++++.   O.+++++++$    O++++++++++++++++++++++",
"+++++++++++++O   ++++++++++$    $+++++++++++++++++++++",
"++++++++++++$   .+++++++++++O    .++++++++++++++++++++",
"+++++++++++.   O+++++++++++++    O++++++.+++++++++++++",
"+++++++++++$   .+++++++++++++$    .+++.O +++++++++++++",
"+++++++++++    +++++++++++++++    O+++.  +++++++++++++",
"++++++++++.  &Xoooo*++++++++++$    +++.  +++++++++++++",
"++++++++++@=%%%%%%%%%%*+++++++.    .++.  +++++++++++++",
"+++++++**oooooo**++*o%%%%o+++++    $++O  +++++++++++++",
"+++++*****$OOX@oooo*++*%%%%%*++O   $+.   OOO$++++++++*",
"++..+.++....$O$+*ooooo*+*o%%%%%O   O+$   $$O.++++++**+",
"***+*+++++$$....+++*oooo**+*o%%#   O++O  ++++++***o*++",
"*+++++++++O  $.....++**oooo**+*X   &o*O  ++++*ooo*++++",
"++++++++++$   O++.....++**oooo*X   &%%&  ..*o%%*++++++",
"++++++++++$    ++++.....+++**ooO   $*o&  @oo*+++++++++",
"++++++++++.    .++++++.....+++*O   Xo*O  .++++++++++++",
"+++++++++++    O+++++++++......    .++O  +++++++++++++",
"+++++++++++O    +++.$$$.++++++.   O+++O  +++++++++++++",
"+++++++++++.    $$OO    O.++++O   .+++O  +++++++++++++",
"++++++++++++O    .+++.O   $++.   O++++O  +++++++++++++",
"++++++++++++.    O+++++O   $+O   +++++O  +++++++++++++",
"+++++++++++++.    O+++++O   O   .+++++O  .++++++++++++",
"++++++++++++++$     .++++O     .++++.+$  O+.$.++++++++",
"+++++++++++++++.      O$$O    .+++++...      +++++++++",
"+++++++++++++++++$            O+++++$$+.O O$.+++++++++",
"+++++++++++++++++++$OO  O$.O   O.++. .++++++++++++++++",
"+++++++++++++++++++++++++++.     OO  .++++++++++++++++",
"++++++++++++++++++++++++++++.       O+++++++++++++++++",
"+++++++++++++++++++++++++++++.      .+++++++++++++++++",
"++++++++++++++++++++++++++++++.O  O.++++++++++++++++++"
};
