/* XPM */
static char * unetbootin_xpm[] = {
"32 32 9 1",
" 	c None",
".	c #008CFF",
"+	c #9AC4E6",
"@	c #CAD5DE",
"#	c #96A9BC",
"$	c #93A7BA",
"%	c #94A8BB",
"&	c #1D4C72",
"*	c #263847",
"            ........            ",
"         ..............         ",
"       ..................       ",
"      ....................      ",
"     ......................     ",
"    ........................    ",
"   ..........................   ",
"  ............................  ",
"  ............................  ",
" .........+@@@@@@@@@@+......... ",
" .........@@@@@@@@@@@@......... ",
" .........@@@@@@@@@@@@......... ",
"..........@@@#@@@@#@@@..........",
"..........@@@$@@@@$@@@..........",
"..........@@@%@@@@%@@@..........",
"..........@@@@@@@@@@@@..........",
"..........@@@@@@@@@@@@..........",
"..........@@@@@@@@@@@@..........",
"..........@@@@@@@@@@@@..........",
".......&****************&.......",
" ......******************...... ",
" ......******************...... ",
" ......******************...... ",
"  .....******************.....  ",
"  .....******************.....  ",
"   ....******************....   ",
"    ...******************...    ",
"     ..******************..     ",
"      .******************.      ",
"       ******************       ",
"         **************         ",
"            ********            "};
