/* XPM */
static char *unetbootin[] = {
/* columns rows colors chars-per-pixel */
"32 32 183 2 ",
"   c #020202",
".  c #040404",
"X  c gray2",
"o  c #060606",
"O  c #070707",
"+  c gray3",
"@  c #090909",
"#  c gray4",
"$  c #0C0C0C",
"%  c gray5",
"&  c #0E0E0E",
"*  c #101010",
"=  c #111111",
"-  c gray7",
";  c #131313",
":  c gray8",
">  c #151515",
",  c gray9",
"<  c #181818",
"1  c #191919",
"2  c gray10",
"3  c #1B1B1B",
"4  c gray11",
"5  c #1D1D1D",
"6  c #1E1E1E",
"7  c gray12",
"8  c gray13",
"9  c #222222",
"0  c #232323",
"q  c gray14",
"w  c #252525",
"e  c gray15",
"r  c #272727",
"t  c #282828",
"y  c gray16",
"u  c #2A2A2A",
"i  c gray17",
"p  c #2C2C2C",
"a  c #2D2D2D",
"s  c gray18",
"d  c #323232",
"f  c gray20",
"g  c #343434",
"h  c #353535",
"j  c gray21",
"k  c #373737",
"l  c #3C3C3C",
"z  c #3E3E3E",
"x  c gray25",
"c  c #414141",
"v  c gray26",
"b  c #444444",
"n  c gray27",
"m  c #464646",
"M  c gray28",
"N  c #484848",
"B  c gray29",
"V  c #4C4C4C",
"C  c #4E4E4E",
"Z  c gray31",
"A  c gray32",
"S  c #535353",
"D  c #555555",
"F  c #565656",
"G  c gray34",
"H  c #585858",
"J  c gray35",
"K  c #5A5A5A",
"L  c #5B5B5B",
"P  c gray36",
"I  c gray37",
"U  c #5F5F5F",
"Y  c #606060",
"T  c #626262",
"R  c gray39",
"E  c #646464",
"W  c gray40",
"Q  c #676767",
"!  c DimGray",
"~  c gray42",
"^  c #6D6D6D",
"/  c #6F6F6F",
"(  c gray44",
")  c #717171",
"_  c #727272",
"`  c #747474",
"'  c gray46",
"]  c #767676",
"[  c gray47",
"{  c #797979",
"}  c gray48",
"|  c #7B7B7B",
" . c #7C7C7C",
".. c gray49",
"X. c #7E7E7E",
"o. c gray50",
"O. c #808080",
"+. c #818181",
"@. c gray51",
"#. c #838383",
"$. c #848484",
"%. c gray52",
"&. c #868686",
"*. c #888888",
"=. c #898989",
"-. c gray54",
";. c #8B8B8B",
":. c gray55",
">. c #8D8D8D",
",. c #8E8E8E",
"<. c gray56",
"1. c #909090",
"2. c gray57",
"3. c #929292",
"4. c #939393",
"5. c gray58",
"6. c #959595",
"7. c gray59",
"8. c #979797",
"9. c #989898",
"0. c gray60",
"q. c #9A9A9A",
"w. c #9B9B9B",
"e. c gray61",
"r. c #9D9D9D",
"t. c gray62",
"y. c #9F9F9F",
"u. c #A0A0A0",
"i. c gray63",
"p. c #A2A2A2",
"a. c gray64",
"s. c #A4A4A4",
"d. c #A5A5A5",
"f. c gray65",
"g. c #A7A7A7",
"h. c gray66",
"j. c #A9A9A9",
"k. c #AAAAAA",
"l. c gray67",
"z. c #ACACAC",
"x. c gray68",
"c. c #AEAEAE",
"v. c #AFAFAF",
"b. c gray69",
"n. c #B1B1B1",
"m. c #B2B2B2",
"M. c gray70",
"N. c #B4B4B4",
"B. c gray71",
"V. c #B6B6B6",
"C. c #B7B7B7",
"Z. c gray72",
"A. c #B9B9B9",
"S. c gray73",
"D. c #BBBBBB",
"F. c #BCBCBC",
"G. c gray74",
"H. c gray",
"J. c gray75",
"K. c #C0C0C0",
"L. c #C1C1C1",
"P. c gray76",
"I. c gray77",
"U. c #C5C5C5",
"Y. c #C6C6C6",
"T. c gray78",
"R. c #C8C8C8",
"E. c gray79",
"W. c #CACACA",
"Q. c gray80",
"!. c #CDCDCD",
"~. c gray81",
"^. c #D0D0D0",
"/. c gray82",
"(. c #D2D2D2",
"). c LightGray",
"_. c gray83",
"`. c #D5D5D5",
"'. c #D7D7D7",
"]. c #D8D8D8",
"[. c gray85",
"{. c #DADADA",
"}. c None",
/* pixels */
"}.}.}.}.}.}.}.}.}.}.}.}.}.}.}.}.}.}.}.}.}.}.}.}.}.}.}.}.}.}.}.}.",
"}.}.}.}.}.}.}.}.}.}.}.}.}.}.}.}.}.}.}.}.}.}.}.r p }.}.}.}.}.}.}.",
"}.}.}.}.}.}.}.}.}.}.}.}.}.}.}.}.}.}.}.}.}.}.& B u 8 }.}.}.}.}.}.",
"}.}.}.}.}.}.}.}.}.}.}.}.}.}.}.}.}.}.}.}.}.& U N.s.k 4 }.}.}.}.}.",
"}.}.}.}.}.}.}.}.}.}.}.}.}.}.}.}.}.}.}.}.- U S.S.l.9.h 4 }.}.}.}.",
"}.}.}.}.}.}.}.}.}.}.}.}.}.}.}.}.}.}.}.& Y H.N.l.i.9.3.h 4 }.}.}.",
"}.}.}.}.}.}.}.}.}.}.}.}.}.}.}.}.}.4 - Q H.N.l.i.t.8.<.-.f 3 }.}.",
"}.}.}.}.}.}.}.}.}.}.}.}.}.}.}.+ - - Q H.b.z.s.i.9.3.<.%.-.r 8 }.",
"}.}.}.}.}.}.}.}.}.}.}.}.+ O 4 B - Q I.N.l.l.i.9.8.<.%.%.-.p 8 }.",
"}.}.}.}.}.}.}.}.}.+ O 4 S } ( > ! I.N.b.l.i.t.8.<.-.%.-.k 3 }.}.",
"}.}.}.}.}.}.O O 4 H %.<.-.] > / I.S.b.z.i.t.8.3.-.%.<.z 3 }.}.}.",
"}.}.}.O O 4 H <.t.9.3.<.} - / I.H.b.z.s.i.9.3.<.%.<.z 3 }.}.}.}.",
"}.}.  U 9.z.l.i.t.8.3.o.- ( E.H.b.z.l.i.9.8.3.-.<.v 4 }.}.}.}.}.",
"}.}.+ U b.l.s.i.t.8.o.> ] Q.I.N.b.l.s.t.8.3.-.3.b 4 }.}.}.}.}.}.",
"}.}.}.+ U l.s.i.9.#.> ] Q.I.S.N.z.s.i.9.8.<.3.b 4 }.}.}.}.}.}.}.",
"}.}.}.}.O H s.i.%.> ] ^.E.S.b.z.l.i.t.8.3.8.b 4 & }.}.}.}.}.}.}.",
"}.}.}.}.}.+ G -.- o.^.Q.H.N.b.l.i.i.9.3.8.B 8 & }.}.}.}.}.}.}.}.",
"}.}.}.}.}.}.> > o._.^.I.S.b.z.s.i.9.8.9.C 8 b + }.}.}.}.}.}.}.}.",
"}.}.}.}.}.}.- o.^._.I.H.N.z.l.i.9.8.9.C 8 Y p }.}.}.}.}.}.}.}.}.",
"}.}.}.}.}.> #._._.Q.H.N.b.l.s.t.8.t.C r Q ] O }.}.}.}.}.}.}.}.}.",
"}.}.}.}.> #.{.{.^.H.S.b.z.s.i.9.i.C r ! o.H + }.}.}.}.}.}.}.}.}.",
"}.}.}.}.v {._._.I.S.N.z.s.i.9.s.S r ( %.%.p }.}.}.}.}.}.}.}.}.}.",
"}.}.}.}.& N._.I.H.N.z.l.i.t.s.S r ] -.-.%.O }.}.}.}.}.}.}.}.}.}.",
"}.}.}.& f 3 N.I.N.b.z.s.t.l.G r } 3.3.<.Y + }.}.}.}.}.}.}.}.}.}.",
"}.}.& f I.#.> b.S.z.l.i.l.G r o.9.9.8.3.p }.}.}.}.}.}.}.}.}.}.}.",
"}.& k p 4 I.o.3 b.b.i.z.H r & H t.9.8.<.O }.}.}.}.}.}.}.}.}.}.}.",
"}.O i.E.<.I.b.] 3 b.H.H u }.}.O H i.9.Q + }.}.}.}.}.}.}.}.}.}.}.",
"}.}.+ i.E.v > Q > & u r }.}.}.}.+ H t.u }.}.}.}.}.}.}.}.}.}.}.}.",
"}.}.}.+ 9.b.z O }.}.}.}.}.}.}.}.}.O C   }.}.}.}.}.}.}.}.}.}.}.}.",
"}.}.}.}.+ G + }.}.}.}.}.}.}.}.}.}.}.+ O }.}.}.}.}.}.}.}.}.}.}.}.",
"}.}.}.}.}.+ }.}.}.}.}.}.}.}.}.}.}.}.}.}.}.}.}.}.}.}.}.}.}.}.}.}.",
"}.}.}.}.}.}.}.}.}.}.}.}.}.}.}.}.}.}.}.}.}.}.}.}.}.}.}.}.}.}.}.}."
};
